<svg width="48" height="48" viewBox="0 0 48 48" fill="none" xmlns="http://www.w3.org/2000/svg">
<g clip-path="url(#clip0_108_4729)">
<path d="M10.5301 11.1434V35.1434H37.9587V11.1434H10.5301ZM8.81585 7.71484H39.673C40.6198 7.71484 41.3873 8.48235 41.3873 9.42913V36.8577C41.3873 37.8045 40.6198 38.572 39.673 38.572H8.81585C7.86908 38.572 7.10156 37.8045 7.10156 36.8577V9.42913C7.10156 8.48235 7.86908 7.71484 8.81585 7.71484ZM29.0323 19.3598L25.9587 16.2863H34.5302V24.8577L31.4566 21.7841L24.8326 28.4081L21.1961 24.7716L16.3474 29.6203L13.923 27.196L21.1961 19.9228L24.8326 23.5593L29.0323 19.3598Z" fill="#3771DC"/>
</g>
<defs>
<clipPath id="clip0_108_4729">
<rect width="48" height="48" fill="white"/>
</clipPath>
</defs>
</svg>
